<?xml version="1.0" encoding="UTF-8"?>
<svg xmlns="http://www.w3.org/2000/svg" viewBox="-0.578 -95.158 119.857 119.857">
  <path d="M13.1836 10.9375C18.0664 15.8203 24.5605 16.6992 32.8125 13.5254C46.1914 8.39844 61.5723-2.73438 75.8789-17.041C102.637-43.7988 111.279-64.8926 100.146-76.0254C89.0137-87.1582 67.9199-78.5156 41.1621-51.7578C26.8555-37.4512 15.7715-22.0703 10.5957-8.69141C7.42188-0.439453 8.30078 6.05469 13.1836 10.9375ZM18.1641 5.95703C14.9902 2.7832 14.7949-1.70898 17.5293-7.61719C23.4863-20.6055 33.8867-34.5215 46.1426-46.7773C69.6289-70.3125 87.207-79.0039 95.166-71.0449C103.125-63.0859 94.4336-45.5078 70.9473-22.0215C58.6426-9.76562 44.7266 0.634766 31.7383 6.64062C25.8301 9.32617 21.3379 9.13086 18.1641 5.95703ZM14.7461 6.73828L17.3828 9.375L98.2422-71.4355L95.6055-74.1211Z" fill="black"/>
</svg>
