<?xml version="1.0" encoding="UTF-8"?>
<svg xmlns="http://www.w3.org/2000/svg" viewBox="1.326 -90.519 109.164 110.531">
  <path d="M68.7012-59.4238C73.3398-59.4238 77.1973-63.2812 77.1973-67.9199C77.1973-72.6074 73.3398-76.416 68.7012-76.416C64.0137-76.416 60.2051-72.6074 60.2051-67.9199C60.2051-63.2812 64.0137-59.4238 68.7012-59.4238ZM42.1875-9.08203C43.9453-7.86133 46.4844-8.25195 47.7051-10.0098L56.8848-22.8516L65.625-21.3867L57.0312-8.59375C55.8594-6.78711 56.2988-4.19922 58.1543-3.07617C60.4004-1.75781 62.5977-2.49023 63.7207-4.19922L75.2441-21.6309C76.7578-23.9258 75.9766-27.4414 72.6562-28.2715L56.6895-32.1289C55.1758-32.5195 54.5898-33.8379 55.5176-35.1562L62.207-45.2148C62.6953-45.9473 63.5742-46.0938 64.3066-45.6055L74.0723-38.916C74.5605-38.5742 75.0488-38.3789 75.5859-38.2812L97.4609-34.3262C99.4141-33.9844 101.758-35.1562 102.148-37.5C102.49-39.6484 101.074-41.748 98.9258-42.1387L77.8809-45.9473L45.459-68.1152L54.7363-74.7559C56.5918-76.0742 56.9336-78.5645 55.7129-80.3223C54.3945-82.0801 51.9043-82.5195 50.1465-81.25L36.2305-71.3379C33.9355-69.6777 33.8867-66.3574 36.2793-64.7461L48.0957-56.6406C48.7793-56.1523 48.9746-55.2734 48.4863-54.5898L38.5742-40.2344C34.4727-34.2773 37.0605-26.0742 45.166-24.8047L48.0957-24.3164L41.2598-14.6973C39.9414-12.8906 40.332-10.3516 42.1875-9.08203ZM10.5957-21.9727C9.61914-21.0449 9.32617-19.4336 10.6445-18.2617C28.9551-2.00195 61.9629 12.0117 95.4102 12.0117C96.7285 12.0117 97.8027 10.9863 97.8027 9.66797C97.8027 8.34961 96.7285 7.27539 95.4102 7.27539C63.0371 7.27539 31.4453-6.10352 13.7695-21.875C12.6465-22.8516 11.4258-22.6562 10.5957-21.9727ZM13.1348-4.88281C16.1621-4.88281 20.7031-6.05469 24.9512-8.64258L18.7988-14.9902C16.4551-12.3047 15.2344-11.2793 12.2559-9.47266C10.9375-8.69141 10.4492-7.56836 10.791-6.44531C11.0352-5.61523 11.9141-4.88281 13.1348-4.88281Z" fill="black"/>
</svg>
